<?xml version="1.0" encoding="UTF-8"?>
<svg xmlns="http://www.w3.org/2000/svg" xmlns:xlink="http://www.w3.org/1999/xlink" width="500pt" height="70pt" viewBox="0 0 500 70" version="1.1">
<g id="surface1">
<path style=" stroke:none;fill-rule:nonzero;fill:rgb(23.529412%,23.529412%,23.529412%);fill-opacity:1;" d="M 177.5 67.75 L 171.167969 56.75 C 174.167969 51.085938 174.167969 44.417969 174.167969 35.75 C 174.167969 24.75 174.167969 16.75 167.832031 10.085938 C 163.5 5.417969 157.832031 3.085938 150.5 3.085938 C 143.167969 3.085938 137.5 5.75 133.167969 10.085938 C 126.832031 16.417969 126.832031 24.417969 126.832031 35.75 C 126.832031 46.75 126.5 54.75 133.167969 61.417969 C 137.832031 66.085938 143.167969 68.417969 150.5 68.417969 C 152.5 68.417969 154.167969 68.085938 155.832031 67.75 Z M 142.167969 53.75 C 139.832031 51.085938 139.167969 48.085938 139.167969 35.75 C 139.167969 23.417969 139.832031 20.417969 142.167969 17.75 C 143.832031 15.75 146.832031 14.417969 150.167969 14.417969 C 153.5 14.417969 156.5 15.75 158.167969 17.75 C 160.5 20.417969 161.167969 23.417969 161.167969 35.75 C 161.167969 48.085938 160.5 51.085938 158.167969 53.75 C 156.5 55.75 153.5 57.085938 150.167969 57.085938 C 146.832031 57.085938 143.832031 55.75 142.167969 53.75 Z M 142.167969 53.75 "/>
<path style=" stroke:none;fill-rule:nonzero;fill:rgb(23.529412%,23.529412%,23.529412%);fill-opacity:1;" d="M 323.832031 3.75 L 336.167969 3.75 L 336.167969 67.75 L 323.832031 67.75 Z M 323.832031 3.75 "/>
<path style=" stroke:none;fill-rule:nonzero;fill:rgb(23.529412%,23.529412%,23.529412%);fill-opacity:1;" d="M 25.832031 68.417969 C 16.167969 68.417969 8.832031 66.417969 2.5 60.085938 L 10.5 52.085938 C 14.5 56.085938 20.167969 57.417969 25.832031 57.417969 C 33.167969 57.417969 37.167969 54.75 37.167969 49.417969 C 37.167969 47.085938 36.5 45.417969 35.167969 44.085938 C 33.832031 42.75 32.5 42.417969 29.5 41.75 L 21.832031 40.75 C 16.5 40.085938 12.167969 38.085938 9.5 35.417969 C 6.5 32.417969 4.832031 28.085938 4.832031 22.75 C 4.832031 11.417969 13.167969 3.417969 27.167969 3.417969 C 35.832031 3.417969 42.5 5.417969 47.832031 10.75 L 39.832031 18.417969 C 35.832031 14.417969 30.832031 14.085938 26.832031 14.085938 C 20.167969 14.085938 16.832031 17.75 16.832031 22.085938 C 16.832031 23.75 17.5 25.417969 18.832031 26.75 C 20.167969 28.085938 22.167969 28.75 24.832031 29.417969 L 32.5 30.417969 C 38.5 31.085938 42.167969 32.75 44.832031 35.417969 C 48.167969 38.75 49.832031 43.417969 49.832031 49.085938 C 49.832031 61.417969 39.167969 68.417969 25.832031 68.417969 "/>
<path style=" stroke:none;fill-rule:nonzero;fill:rgb(23.529412%,23.529412%,23.529412%);fill-opacity:1;" d="M 67.832031 67.75 L 67.832031 3.75 L 110.167969 3.75 L 110.167969 14.75 L 80.5 14.75 L 80.5 29.75 L 105.832031 29.75 L 105.832031 41.085938 L 80.5 41.085938 L 80.5 56.75 L 110.167969 56.75 L 110.167969 67.75 L 67.832031 67.75 "/>
<path style=" stroke:none;fill-rule:nonzero;fill:rgb(23.529412%,23.529412%,23.529412%);fill-opacity:1;" d="M 216.5 68.417969 C 203.5 68.417969 192.832031 59.417969 192.832031 45.75 L 192.832031 3.75 L 205.5 3.75 L 205.5 45.417969 C 205.5 52.75 209.832031 57.085938 216.5 57.085938 C 223.167969 57.085938 227.5 52.75 227.5 45.417969 L 227.5 3.75 L 239.832031 3.75 L 239.832031 45.75 C 239.832031 59.417969 229.5 68.417969 216.5 68.417969 "/>
<path style=" stroke:none;fill-rule:nonzero;fill:rgb(23.529412%,23.529412%,23.529412%);fill-opacity:1;" d="M 299.167969 61.417969 C 294.832031 66.085938 289.167969 68.417969 281.832031 68.417969 C 274.5 68.417969 268.832031 65.75 264.5 61.417969 C 258.167969 55.085938 258.167969 47.085938 258.167969 35.75 C 258.167969 24.75 257.832031 16.75 264.5 10.085938 C 268.832031 5.417969 274.5 3.085938 281.832031 3.085938 C 289.167969 3.085938 294.5 5.75 299.167969 10.085938 C 305.5 16.417969 305.5 24.417969 305.5 35.75 C 305.5 46.75 305.5 54.75 299.167969 61.417969 M 289.832031 17.75 C 288.167969 15.75 285.167969 14.417969 281.832031 14.417969 C 278.5 14.417969 275.5 15.75 273.832031 17.75 C 271.5 20.417969 270.832031 23.417969 270.832031 35.75 C 270.832031 48.085938 271.5 51.085938 273.832031 53.75 C 275.5 55.75 278.5 57.085938 281.832031 57.085938 C 285.167969 57.085938 288.167969 55.75 289.832031 53.75 C 292.167969 51.085938 292.832031 48.085938 292.832031 35.75 C 292.832031 23.417969 292.167969 20.417969 289.832031 17.75 "/>
<path style=" stroke:none;fill-rule:nonzero;fill:rgb(23.529412%,23.529412%,23.529412%);fill-opacity:1;" d="M 395.167969 67.75 L 391.5 56.417969 L 368.832031 56.417969 L 364.832031 67.75 L 351.832031 67.75 L 375.167969 3.75 L 384.832031 3.75 L 408.167969 67.75 Z M 380.167969 22.417969 L 372.167969 45.75 L 388.167969 45.75 Z M 380.167969 22.417969 "/>
<path style=" stroke:none;fill-rule:nonzero;fill:rgb(31.372549%,72.156863%,28.235294%);fill-opacity:1;" d="M 481.5 3.75 L 497.5 3.75 L 497.5 19.75 L 481.5 19.75 Z M 481.5 3.75 "/>
<path style=" stroke:none;fill-rule:nonzero;fill:rgb(31.372549%,72.156863%,28.235294%);fill-opacity:1;" d="M 441.5 54.085938 L 441.5 3.75 L 433.5 3.75 L 433.5 62.085938 L 441.5 54.085938 "/>
<path style=" stroke:none;fill-rule:nonzero;fill:rgb(31.372549%,72.156863%,28.235294%);fill-opacity:1;" d="M 447.167969 59.75 L 439.167969 67.75 L 497.5 67.75 L 497.5 59.75 L 447.167969 59.75 "/>
<path style=" stroke:none;fill-rule:nonzero;fill:rgb(31.372549%,72.156863%,28.235294%);fill-opacity:1;" d="M 457.5 38.085938 L 457.5 3.75 L 449.5 3.75 L 449.5 46.085938 L 457.5 38.085938 "/>
<path style=" stroke:none;fill-rule:nonzero;fill:rgb(31.372549%,72.156863%,28.235294%);fill-opacity:1;" d="M 463.167969 43.75 L 455.167969 51.75 L 497.5 51.75 L 497.5 43.75 L 463.167969 43.75 "/>
<path style=" stroke:none;fill-rule:nonzero;fill:rgb(31.372549%,72.156863%,28.235294%);fill-opacity:1;" d="M 473.5 22.085938 L 473.5 3.75 L 465.5 3.75 L 465.5 30.085938 L 473.5 22.085938 "/>
<path style=" stroke:none;fill-rule:nonzero;fill:rgb(31.372549%,72.156863%,28.235294%);fill-opacity:1;" d="M 479.167969 27.75 L 471.167969 35.75 L 497.5 35.75 L 497.5 27.75 L 479.167969 27.75 "/>
</g>
</svg>
