<svg id="SvgjsSvg1001" width="288" height="288" xmlns="http://www.w3.org/2000/svg" version="1.1" xmlns:xlink="http://www.w3.org/1999/xlink" xmlns:svgjs="http://svgjs.com/svgjs"><defs id="SvgjsDefs1002"></defs><g id="SvgjsG1008" transform="matrix(1,0,0,1,0,0)"><svg xmlns="http://www.w3.org/2000/svg" width="288" height="288" fill="none" viewBox="0 0 157 43"><path fill="#aeb1bd" d="M0 10.4677H9.3405L14.7795 24.21 20.2888 10.4677H29.3832L15.6891 43H6.53683L10.2854 34.3794 0 10.4677zM38.8572 9.92065C31.8392 9.92065 27.4027 16.1367 27.4027 22.3266 27.4027 29.2922 32.2668 34.8145 38.724 34.8145 43.5408 34.8145 45.3568 31.9164 45.3568 31.9164V34.174H53.5035V10.468H45.3568V12.6231C45.3571 12.6231 43.3307 9.92065 38.8572 9.92065zM40.5899 17.5391C43.828 17.5391 45.4992 20.0694 45.4992 22.3527 45.4992 24.8114 43.7089 27.2243 40.5899 27.2243 38.005 27.2243 35.6691 25.1379 35.6691 22.4572 35.6694 19.7389 37.5481 17.5391 40.5899 17.5391zM56.3095 34.1742V0H64.8305V12.7052C64.8305 12.7052 66.8542 9.92373 71.0931 9.92373 76.278 9.92373 79.3161 13.7391 79.3161 19.1911V34.1742H70.8573V21.2433C70.8573 19.3983 69.9672 17.616 67.9516 17.616 65.8997 17.616 64.8305 19.4254 64.8305 21.2433V34.174L56.3095 34.1742zM93.8439 9.9235C85.8068 9.9235 81.0216 15.9588 81.0216 22.4252 81.0216 29.7838 86.8158 34.8145 93.8744 34.8145 100.716 34.8145 106.702 30.0121 106.702 22.5483 106.702 14.3823 100.435 9.9235 93.8439 9.9235zM93.9207 17.6088C96.7597 17.6088 98.7239 19.944 98.7239 22.4342 98.7239 24.5581 96.8934 27.178 93.9207 27.178 91.1968 27.178 89.1526 25.0198 89.1526 22.411 89.1524 19.8977 90.852 17.6088 93.9207 17.6088zM120.898 9.9235C112.861 9.9235 108.076 15.9588 108.076 22.4252 108.076 29.7838 113.87 34.8145 120.928 34.8145 127.77 34.8145 133.756 30.0121 133.756 22.5483 133.756 14.3823 127.488 9.9235 120.898 9.9235zM120.975 17.6088C123.813 17.6088 125.778 19.944 125.778 22.4342 125.778 24.5581 123.947 27.178 120.975 27.178 118.251 27.178 116.207 25.0198 116.207 22.411 116.206 19.8977 117.906 17.6088 120.975 17.6088zM140.48 23.5014C143.605 23.5014 146.138 26.0032 146.138 29.0894 146.138 32.1756 143.605 34.6775 140.48 34.6775 137.355 34.6775 134.822 32.1756 134.822 29.0894 134.822 26.0032 137.355 23.5014 140.48 23.5014zM147.998 21.4487H137.811L146.852 0H157L147.998 21.4487z" class="color333 svgShape"></path></svg></g></svg>