<svg id="SvgjsSvg1011" width="288" height="288" xmlns="http://www.w3.org/2000/svg" version="1.1" xmlns:xlink="http://www.w3.org/1999/xlink" xmlns:svgjs="http://svgjs.com/svgjs"><defs id="SvgjsDefs1012"></defs><g id="SvgjsG1013"><svg xmlns="http://www.w3.org/2000/svg" width="288" height="288" fill="none" viewBox="0 0 131 30"><path fill="#aeb1bd" fill-rule="evenodd" d="M127.107 4.83412H127.641C127.663 4.83412 127.672 4.81981 127.683 4.80004 127.69 4.78782 127.699 4.77351 127.712 4.7592 127.733 4.7378 127.741 4.72862 127.745 4.71771 127.748 4.70951 127.748 4.70034 127.748 4.68427V3.71026H128.175L128.745 4.72174C128.759 4.73605 128.767 4.75035 128.774 4.76258 128.786 4.78235 128.795 4.79666 128.817 4.79666 128.888 4.83412 128.923 4.83412 128.959 4.83412H129.493C129.529 4.83412 129.565 4.83412 129.565 4.79666 129.6 4.72174 129.6 4.68427 129.565 4.64681L128.888 3.56041C129.066 3.44803 129.173 3.33564 129.315 3.14833 129.458 2.99848 129.493 2.81117 129.493 2.5864 129.493 2.2867 129.386 2.02447 129.173 1.7997 128.959 1.57492 128.674 1.5 128.282 1.5H127.107C127.089 1.5 127.08 1.50937 127.071 1.51873 127.062 1.5281 127.053 1.53746 127.036 1.53746 127 1.57492 127 1.57492 127 1.61239V4.72174C127 4.74047 127.009 4.74983 127.018 4.7592 127.027 4.76856 127.036 4.77793 127.036 4.79666 127.056 4.81835 127.065 4.82748 127.075 4.83133 127.083 4.83412 127.092 4.83412 127.107 4.83412zM128.603 2.32416C128.71 2.36163 128.745 2.47401 128.745 2.62386 128.745 2.73625 128.674 2.81117 128.603 2.8861 128.532 2.99848 128.425 3.03594 128.282 3.03594H127.784V2.17432H128.282C128.389 2.17432 128.532 2.24924 128.603 2.32416zM31.0226 22.5564C35.4747 22.5564 39.0721 18.9975 39.0721 14.5396 39.0721 10.0441 35.4747 6.4103 31.0226 6.44776 26.5704 6.44776 22.9731 10.0441 22.9731 14.5396 22.9731 18.9975 26.5348 22.5564 31.0226 22.5564zM30.9869 11.3553C32.661 11.3553 33.9432 12.7788 33.9432 14.5021 33.9432 16.2254 32.661 17.6114 30.9869 17.6114 29.3129 17.6114 28.0307 16.2254 28.0307 14.5021 28.0307 12.7788 29.3486 11.3553 30.9869 11.3553zM50.2915 22.0694C56.3464 22.0694 60.6561 17.6864 60.6561 11.2804 60.6561 4.87435 56.382.603679 50.2915.566217H41.5296C41.1022.566217 40.7817.903375 40.7817 1.31546V21.3202C40.7817 21.7323 41.1022 22.0694 41.5296 22.0694H50.2915zM50.1846 5.66106C53.1408 5.66106 55.1354 8.2834 55.1354 11.2804 55.1354 14.2773 53.1408 17.0121 50.1846 17.0121H46.0886V5.66106H50.1846zM72.196 8.02116C71.5905 7.08461 70.2015 6.4103 68.4562 6.4103 64.752 6.4103 61.1903 9.44472 61.1903 14.4272 61.1903 19.4096 64.752 22.519 68.4562 22.519 70.2015 22.519 71.6262 21.8447 72.2317 20.9081V21.3577C72.2317 21.7697 72.5166 22.0694 72.9084 22.0694H76.5769C76.9687 22.0694 77.2537 21.7697 77.2537 21.3577V7.57162C77.2537 7.15954 76.9687 6.85984 76.5769 6.85984H72.8728C72.5166 6.85984 72.196 7.15954 72.196 7.57162V8.02116zM72.196 14.4646C72.196 16.1879 70.8782 17.6114 69.2398 17.6114 67.6014 17.6114 66.2836 16.2254 66.2836 14.4646 66.2836 12.7414 67.6014 11.3178 69.2398 11.3178 70.9138 11.3178 72.196 12.7414 72.196 14.4646zM88.9005 7.94624C88.2594 7.12207 86.8703 6.4103 85.0894 6.4103 81.4565 6.4103 77.9304 9.48218 77.9304 14.4646 77.9304 19.4471 81.4921 22.5564 85.1963 22.5564 86.9415 22.5564 88.2238 21.8821 88.9717 20.9456V21.3951C88.9717 21.8072 89.2567 22.1069 89.6485 22.1069H93.317C93.7088 22.1069 93.9938 21.8072 93.9938 21.3951V1.31546C93.9938.903375 93.7088.603679 93.317.603679H89.5772C89.2211.603679 88.9005.903375 88.9005 1.31546V7.94624zM88.9361 14.4646C88.9361 16.1879 87.6183 17.6114 85.9799 17.6114 84.3415 17.6114 83.0237 16.2254 83.0237 14.4646 83.0237 12.7414 84.3415 11.3178 85.9799 11.3178 87.6539 11.3178 88.9361 12.7414 88.9361 14.4646zM105.676 7.94624C105.035 7.12207 103.646 6.4103 101.865 6.4103 98.1966 6.4103 94.6705 9.48218 94.6705 14.4646 94.6705 19.4471 98.2322 22.5564 101.936 22.5564 103.682 22.5564 104.964 21.8821 105.712 20.9456V21.3951C105.712 21.8072 105.997 22.1069 106.389 22.1069H110.057C110.449 22.1069 110.734 21.8072 110.734 21.3951V1.31546C110.734.903375 110.449.603679 110.057.603679H106.353C105.997.603679 105.676.903375 105.676 1.31546V7.94624zM105.676 14.4646C105.676 16.1879 104.358 17.6114 102.72 17.6114 101.082 17.6114 99.7994 16.2254 99.7637 14.4646 99.7637 12.7414 101.082 11.3178 102.72 11.3178 104.394 11.3178 105.676 12.7414 105.676 14.4646z" clip-rule="evenodd" class="color333 svgShape"></path><path fill="#aeb1bd" d="M116.646 29.2996C119.994 29.2996 122.131 27.5014 123.057 24.2797L127.403 8.09609C127.474 7.75893 127.51 7.57162 127.51 7.45923 127.51 7.15954 127.331 6.8973 126.904 6.8973H122.416C122.024 6.8973 121.775 7.27192 121.704 7.64654L119.745 17.1619H119.567L117.109 7.64654C117.002 7.27192 116.789 6.8973 116.397 6.8973H111.98C111.589 6.8973 111.375 7.15954 111.375 7.45923 111.375 7.57162 111.411 7.75893 111.482 8.09609L115.222 21.3202C115.364 21.7323 115.649 22.0694 116.112 22.0694H118.392L117.928 23.6054C117.644 24.5045 116.896 24.7667 116.326 24.7667 115.649 24.7667 115.043 24.3921 114.616 24.0924 114.331 23.8676 114.189 23.7927 113.868 23.7927 113.797 23.7927 113.476 23.8302 113.263 24.1298L111.874 26.3401C111.695 26.5649 111.624 26.7897 111.624 26.977 111.624 27.2017 111.731 27.4265 111.909 27.6138 113.049 28.6628 114.83 29.2996 116.646 29.2996zM10.4002 22.5564C13.0003 22.5564 15.9209 21.6948 17.7017 19.1099V21.3202C17.7017 21.7323 18.0223 22.0694 18.4497 22.0694H21.5128C21.9402 22.0694 22.2607 21.7323 22.2607 21.3202V11.6175C22.2607 11.2054 21.9402 10.8683 21.5128 10.8683H12.7153C12.2879 10.8683 11.9674 11.2054 11.9674 11.6175V14.5021C11.9674 14.9142 12.2879 15.2513 12.7153 15.2513H15.6003C14.5674 16.6749 13.0003 17.4241 11.0769 17.4241 8.19195 17.4241 5.55628 15.1764 5.55628 11.3178 5.55628 7.83385 7.8714 5.21151 11.1482 5.21151 13.0359 5.21151 14.603 6.14806 15.5647 7.53416 15.7072 7.75893 16.1346 8.2834 16.8825 8.13355L20.1593 7.53416C21.4059 7.30938 21.2635 6.56014 21.0498 6.1106 19.3757 2.17708 15.6716.116672 11.0413.116672 4.80832.116672.0356172 5.09912 0 11.3553 0 17.8737 4.41653 22.5564 10.4002 22.5564z" class="color333 svgShape"></path><path fill="#aeb1bd" fill-rule="evenodd" d="M125.301 3.03871C125.301 1.39038 126.583 0.041748 128.151 0.041748C129.718 0.041748 131 1.39038 131 3.03871C131 4.68704 129.718 6.03568 128.151 6.03568C126.583 6.03568 125.301 4.68704 125.301 3.03871ZM125.871 3.03871C125.871 4.34988 126.904 5.43628 128.151 5.43628C129.397 5.43628 130.43 4.34988 130.43 3.03871C130.43 1.72754 129.397 0.641141 128.151 0.641141C126.904 0.641141 125.871 1.72754 125.871 3.03871Z" clip-rule="evenodd" class="color333 svgShape"></path></svg></g></svg>